%TF.GenerationSoftware,Altium Limited,Altium Designer,22.9.1 (49)*%
G04 Layer_Color=0*
%FSLAX26Y26*%
%MOIN*%
%TF.SameCoordinates,855F7917-2C45-41DE-9D2E-9897B7A1FA0C*%
%TF.FilePolarity,Positive*%
%TF.FileFunction,Plated,1,2,PTH,Drill*%
%TF.Part,Single*%
G01*
G75*
%TA.AperFunction,ComponentDrill*%
%ADD27C,0.050000*%
%ADD28C,0.031496*%
%ADD29C,0.027559*%
%ADD30C,0.027953*%
%TA.AperFunction,ViaDrill,NotFilled*%
%ADD31C,0.028000*%
D27*
X2660000Y2600000D02*
D03*
Y2400000D02*
D03*
Y2200000D02*
D03*
Y2800000D02*
D03*
X4830000Y2600000D02*
D03*
Y2400000D02*
D03*
Y2200000D02*
D03*
Y2800000D02*
D03*
D28*
X3250000D02*
D03*
X3150000D02*
D03*
X3050000D02*
D03*
X3250000Y2200000D02*
D03*
X3150000D02*
D03*
X3050000D02*
D03*
D29*
X3900000Y2599213D02*
D03*
Y2500787D02*
D03*
X3610000Y2750787D02*
D03*
Y2849213D02*
D03*
X4190000Y2750787D02*
D03*
Y2849213D02*
D03*
D30*
X3050000Y2600000D02*
D03*
Y2500000D02*
D03*
Y2400000D02*
D03*
X3260000Y2600000D02*
D03*
Y2500000D02*
D03*
Y2400000D02*
D03*
D31*
X3800000Y2410000D02*
D03*
X3420000Y2120000D02*
D03*
%TF.MD5,1b8ad9ff3ff10326100874709f38877f*%
M02*
