%TF.GenerationSoftware,Altium Limited,Altium Designer,22.9.1 (49)*%
G04 Layer_Color=16711935*
%FSLAX26Y26*%
%MOIN*%
%TF.SameCoordinates,855F7917-2C45-41DE-9D2E-9897B7A1FA0C*%
%TF.FilePolarity,Negative*%
%TF.FileFunction,Soldermask,Bot*%
%TF.Part,Single*%
G01*
G75*
%TA.AperFunction,ComponentPad*%
%ADD10C,0.108000*%
%ADD11R,0.059181X0.059181*%
%ADD12C,0.059181*%
%ADD13R,0.047244X0.047244*%
%ADD14C,0.047244*%
%ADD15C,0.055953*%
%ADD16R,0.055953X0.055953*%
%TA.AperFunction,ViaPad*%
%ADD17C,0.058000*%
D10*
X2660000Y2600000D02*
D03*
Y2400000D02*
D03*
Y2200000D02*
D03*
Y2800000D02*
D03*
X4830000Y2600000D02*
D03*
Y2400000D02*
D03*
Y2200000D02*
D03*
Y2800000D02*
D03*
D11*
X3250000D02*
D03*
Y2200000D02*
D03*
D12*
X3150000Y2800000D02*
D03*
X3050000D02*
D03*
X3150000Y2200000D02*
D03*
X3050000D02*
D03*
D13*
X3900000Y2599213D02*
D03*
X3610000Y2750787D02*
D03*
X4190000D02*
D03*
D14*
X3900000Y2500787D02*
D03*
X3610000Y2849213D02*
D03*
X4190000D02*
D03*
D15*
X3050000Y2600000D02*
D03*
Y2500000D02*
D03*
X3260000Y2600000D02*
D03*
Y2500000D02*
D03*
D16*
X3050000Y2400000D02*
D03*
X3260000D02*
D03*
D17*
X3800000Y2410000D02*
D03*
X3420000Y2120000D02*
D03*
%TF.MD5,fac9c1f041f694bc065b91e5b4984e52*%
M02*
