%TF.GenerationSoftware,Altium Limited,Altium Designer,22.9.1 (49)*%
G04 Layer_Color=128*
%FSLAX26Y26*%
%MOIN*%
%TF.SameCoordinates,855F7917-2C45-41DE-9D2E-9897B7A1FA0C*%
%TF.FilePolarity,Positive*%
%TF.FileFunction,Drillmap*%
%TF.Part,Single*%
G01*
G75*
%TA.AperFunction,NonConductor*%
%ADD33C,0.005000*%
D33*
X2635000Y2600000D02*
X2685000D01*
X2660000Y2575000D02*
Y2625000D01*
X2635000Y2400000D02*
X2685000D01*
X2660000Y2375000D02*
Y2425000D01*
X2635000Y2200000D02*
X2685000D01*
X2660000Y2175000D02*
Y2225000D01*
X2635000Y2800000D02*
X2685000D01*
X2660000Y2775000D02*
Y2825000D01*
X4805000Y2600000D02*
X4855000D01*
X4830000Y2575000D02*
Y2625000D01*
X4805000Y2400000D02*
X4855000D01*
X4830000Y2375000D02*
Y2425000D01*
X4805000Y2200000D02*
X4855000D01*
X4830000Y2175000D02*
Y2225000D01*
X4805000Y2800000D02*
X4855000D01*
X4830000Y2775000D02*
Y2825000D01*
X3234252Y2800000D02*
X3265748D01*
X3250000Y2784252D02*
Y2815748D01*
X3134252Y2800000D02*
X3165748D01*
X3150000Y2784252D02*
Y2815748D01*
X3034252Y2800000D02*
X3065748D01*
X3050000Y2784252D02*
Y2815748D01*
X3886220Y2599213D02*
X3913780D01*
X3900000Y2585433D02*
Y2612992D01*
X3886220Y2500787D02*
X3913780D01*
X3900000Y2487008D02*
Y2514567D01*
X3596220Y2750787D02*
X3623780D01*
X3610000Y2737008D02*
Y2764567D01*
X3596220Y2849213D02*
X3623780D01*
X3610000Y2835433D02*
Y2862992D01*
X4176221Y2750787D02*
X4203779D01*
X4190000Y2737008D02*
Y2764567D01*
X4176221Y2849213D02*
X4203779D01*
X4190000Y2835433D02*
Y2862992D01*
X3036024Y2600000D02*
X3063976D01*
X3050000Y2586024D02*
Y2613976D01*
X3036024Y2500000D02*
X3063976D01*
X3050000Y2486024D02*
Y2513976D01*
X3036024Y2400000D02*
X3063976D01*
X3050000Y2386024D02*
Y2413976D01*
X3246024Y2600000D02*
X3273976D01*
X3260000Y2586024D02*
Y2613976D01*
X3246024Y2500000D02*
X3273976D01*
X3260000Y2486024D02*
Y2513976D01*
X3246024Y2400000D02*
X3273976D01*
X3260000Y2386024D02*
Y2413976D01*
X3234252Y2200000D02*
X3265748D01*
X3250000Y2184252D02*
Y2215748D01*
X3134252Y2200000D02*
X3165748D01*
X3150000Y2184252D02*
Y2215748D01*
X3034252Y2200000D02*
X3065748D01*
X3050000Y2184252D02*
Y2215748D01*
X3786000Y2410000D02*
X3814000D01*
X3800000Y2396000D02*
Y2424000D01*
X3406000Y2120000D02*
X3434000D01*
X3420000Y2106000D02*
Y2134000D01*
%TF.MD5,b9563719be6bee679cd8f5c1c6de4bb8*%
M02*
