%TF.GenerationSoftware,Altium Limited,Altium Designer,22.9.1 (49)*%
G04 Layer_Color=2752767*
%FSLAX26Y26*%
%MOIN*%
%TF.SameCoordinates,855F7917-2C45-41DE-9D2E-9897B7A1FA0C*%
%TF.FilePolarity,Positive*%
%TF.FileFunction,Drawing*%
%TF.Part,Single*%
G01*
G75*
%TA.AperFunction,NonConductor*%
%ADD33C,0.005000*%
%ADD34C,0.006667*%
D33*
X2660000Y2580000D02*
X2640000Y2620000D01*
X2680000D01*
X2660000Y2580000D01*
Y2380000D02*
X2640000Y2420000D01*
X2680000D01*
X2660000Y2380000D01*
Y2180000D02*
X2640000Y2220000D01*
X2680000D01*
X2660000Y2180000D01*
Y2780000D02*
X2640000Y2820000D01*
X2680000D01*
X2660000Y2780000D01*
X4830000Y2580000D02*
X4810000Y2620000D01*
X4850000D01*
X4830000Y2580000D01*
Y2380000D02*
X4810000Y2420000D01*
X4850000D01*
X4830000Y2380000D01*
Y2180000D02*
X4810000Y2220000D01*
X4850000D01*
X4830000Y2180000D01*
Y2780000D02*
X4810000Y2820000D01*
X4850000D01*
X4830000Y2780000D01*
X3230000D02*
Y2820000D01*
X3270000D01*
Y2780000D01*
X3230000D01*
X3130000D02*
Y2820000D01*
X3170000D01*
Y2780000D01*
X3130000D01*
X3030000D02*
Y2820000D01*
X3070000D01*
Y2780000D01*
X3030000D01*
X3900000Y2579213D02*
X3910000Y2589213D01*
X3920000D01*
X3910000Y2599213D01*
X3920000Y2609213D01*
X3910000D01*
X3900000Y2619213D01*
X3890000Y2609213D01*
X3880000D01*
X3890000Y2599213D01*
X3880000Y2589213D01*
X3890000D01*
X3900000Y2579213D01*
Y2480787D02*
X3910000Y2490787D01*
X3920000D01*
X3910000Y2500787D01*
X3920000Y2510787D01*
X3910000D01*
X3900000Y2520787D01*
X3890000Y2510787D01*
X3880000D01*
X3890000Y2500787D01*
X3880000Y2490787D01*
X3890000D01*
X3900000Y2480787D01*
X3610000Y2730787D02*
X3620000Y2740787D01*
X3630000D01*
X3620000Y2750787D01*
X3630000Y2760787D01*
X3620000D01*
X3610000Y2770787D01*
X3600000Y2760787D01*
X3590000D01*
X3600000Y2750787D01*
X3590000Y2740787D01*
X3600000D01*
X3610000Y2730787D01*
Y2829213D02*
X3620000Y2839213D01*
X3630000D01*
X3620000Y2849213D01*
X3630000Y2859213D01*
X3620000D01*
X3610000Y2869213D01*
X3600000Y2859213D01*
X3590000D01*
X3600000Y2849213D01*
X3590000Y2839213D01*
X3600000D01*
X3610000Y2829213D01*
X4190000Y2730787D02*
X4200000Y2740787D01*
X4210000D01*
X4200000Y2750787D01*
X4210000Y2760787D01*
X4200000D01*
X4190000Y2770787D01*
X4180000Y2760787D01*
X4170000D01*
X4180000Y2750787D01*
X4170000Y2740787D01*
X4180000D01*
X4190000Y2730787D01*
Y2829213D02*
X4200000Y2839213D01*
X4210000D01*
X4200000Y2849213D01*
X4210000Y2859213D01*
X4200000D01*
X4190000Y2869213D01*
X4180000Y2859213D01*
X4170000D01*
X4180000Y2849213D01*
X4170000Y2839213D01*
X4180000D01*
X4190000Y2829213D01*
X3230000Y2180000D02*
Y2220000D01*
X3270000D01*
Y2180000D01*
X3230000D01*
X3130000D02*
Y2220000D01*
X3170000D01*
Y2180000D01*
X3130000D01*
X3030000D02*
Y2220000D01*
X3070000D01*
Y2180000D01*
X3030000D01*
X3780000Y2390000D02*
X3790000Y2410000D01*
X3780000Y2430000D01*
X3800000Y2420000D01*
X3820000Y2430000D01*
X3810000Y2410000D01*
X3820000Y2390000D01*
X3800000Y2400000D01*
X3780000Y2390000D01*
X3400000Y2100000D02*
X3410000Y2120000D01*
X3400000Y2140000D01*
X3420000Y2130000D01*
X3440000Y2140000D01*
X3430000Y2120000D01*
X3440000Y2100000D01*
X3420000Y2110000D01*
X3400000Y2100000D01*
D34*
X3070000Y2600000D02*
G03*
X3070000Y2600000I-20000J0D01*
G01*
Y2500000D02*
G03*
X3070000Y2500000I-20000J0D01*
G01*
Y2400000D02*
G03*
X3070000Y2400000I-20000J0D01*
G01*
X3280000Y2600000D02*
G03*
X3280000Y2600000I-20000J0D01*
G01*
Y2500000D02*
G03*
X3280000Y2500000I-20000J0D01*
G01*
Y2400000D02*
G03*
X3280000Y2400000I-20000J0D01*
G01*
%TF.MD5,a4957ccef26a497fcc6165f70d293b26*%
M02*
