%TF.GenerationSoftware,Altium Limited,Altium Designer,22.9.1 (49)*%
G04 Layer_Color=65535*
%FSLAX26Y26*%
%MOIN*%
%TF.SameCoordinates,1DAB686F-CFF3-4EBC-B241-DE3F9B15245D*%
%TF.FilePolarity,Positive*%
%TF.FileFunction,Legend,Top*%
%TF.Part,Single*%
G01*
G75*
%TA.AperFunction,NonConductor*%
%ADD29C,0.010000*%
%ADD30C,0.005000*%
%ADD31C,0.009842*%
%ADD32C,0.007874*%
%ADD33C,0.006000*%
%ADD34C,0.003000*%
D29*
X2590000Y2875000D02*
G03*
X2590000Y2875000I-5000J0D01*
G01*
X4760000D02*
G03*
X4760000Y2875000I-5000J0D01*
G01*
X2495000Y2925000D02*
X2660000D01*
X2495000Y2095000D02*
Y2925000D01*
Y2095000D02*
X2835000D01*
Y2925000D01*
X2660000D02*
X2835000D01*
X4665000D02*
X4830000D01*
X4665000Y2095000D02*
Y2925000D01*
Y2095000D02*
X5005000D01*
Y2925000D01*
X4830000D02*
X5005000D01*
X3650013Y2979990D02*
Y2930006D01*
X3660010Y2920010D01*
X3680003D01*
X3690000Y2930006D01*
Y2979990D01*
X3709994Y2920010D02*
X3729987D01*
X3719990D01*
Y2979990D01*
X3709994Y2969994D01*
X2970026Y2079990D02*
Y2040003D01*
X2990019Y2020010D01*
X3010013Y2040003D01*
Y2079990D01*
X3030006Y2020010D02*
Y2079990D01*
X3059997D01*
X3069994Y2069994D01*
Y2050000D01*
X3059997Y2040003D01*
X3030006D01*
X3050000D02*
X3069994Y2020010D01*
X3119977D02*
Y2079990D01*
X3089987Y2050000D01*
X3129974D01*
X3439990Y2679974D02*
X3400003D01*
X3380010Y2659981D01*
X3400003Y2639987D01*
X3439990D01*
X3380010Y2619993D02*
X3439990D01*
Y2590003D01*
X3429994Y2580006D01*
X3410000D01*
X3400003Y2590003D01*
Y2619993D01*
Y2600000D02*
X3380010Y2580006D01*
X3429994Y2560013D02*
X3439990Y2550016D01*
Y2530023D01*
X3429994Y2520026D01*
X3419997D01*
X3410000Y2530023D01*
Y2540019D01*
Y2530023D01*
X3400003Y2520026D01*
X3390007D01*
X3380010Y2530023D01*
Y2550016D01*
X3390007Y2560013D01*
X2870010Y2320026D02*
X2909997D01*
X2929990Y2340019D01*
X2909997Y2360013D01*
X2870010D01*
X2929990Y2380006D02*
X2870010D01*
Y2409997D01*
X2880006Y2419994D01*
X2900000D01*
X2909997Y2409997D01*
Y2380006D01*
Y2400000D02*
X2929990Y2419994D01*
Y2479974D02*
Y2439987D01*
X2890003Y2479974D01*
X2880006D01*
X2870010Y2469977D01*
Y2449984D01*
X2880006Y2439987D01*
X2960023Y2979990D02*
Y2940003D01*
X2980016Y2920010D01*
X3000010Y2940003D01*
Y2979990D01*
X3020003Y2920010D02*
Y2979990D01*
X3049994D01*
X3059990Y2969994D01*
Y2950000D01*
X3049994Y2940003D01*
X3020003D01*
X3039997D02*
X3059990Y2920010D01*
X3079984D02*
X3099977D01*
X3089981D01*
Y2979990D01*
X3079984Y2969994D01*
X3506473Y2364990D02*
Y2315006D01*
X3516470Y2305010D01*
X3536463D01*
X3546460Y2315006D01*
Y2364990D01*
X3566454Y2354994D02*
X3576450Y2364990D01*
X3596444D01*
X3606441Y2354994D01*
Y2344997D01*
X3596444Y2335000D01*
X3586447D01*
X3596444D01*
X3606441Y2325003D01*
Y2315006D01*
X3596444Y2305010D01*
X3576450D01*
X3566454Y2315006D01*
X4200016Y2469990D02*
Y2420006D01*
X4210013Y2410010D01*
X4230007D01*
X4240003Y2420006D01*
Y2469990D01*
X4299984Y2410010D02*
X4259997D01*
X4299984Y2449997D01*
Y2459994D01*
X4289987Y2469990D01*
X4269994D01*
X4259997Y2459994D01*
X4560013Y2510010D02*
Y2569990D01*
X4590003D01*
X4600000Y2559994D01*
Y2540000D01*
X4590003Y2530003D01*
X4560013D01*
X4580007D02*
X4600000Y2510010D01*
X4619994D02*
X4639987D01*
X4629990D01*
Y2569990D01*
X4619994Y2559994D01*
X2530016Y2470010D02*
Y2529990D01*
X2560006D01*
X2570003Y2519994D01*
Y2500000D01*
X2560006Y2490003D01*
X2530016D01*
X2629984Y2470010D02*
X2589997D01*
X2629984Y2509997D01*
Y2519994D01*
X2619987Y2529990D01*
X2599994D01*
X2589997Y2519994D01*
X4890013Y2470010D02*
Y2529990D01*
X4920003D01*
X4930000Y2519994D01*
Y2500000D01*
X4920003Y2490003D01*
X4890013D01*
X4949994Y2470010D02*
X4969987D01*
X4959990D01*
Y2529990D01*
X4949994Y2519994D01*
X4370016Y2949990D02*
Y2890010D01*
X4400007D01*
X4410003Y2900006D01*
Y2939994D01*
X4400007Y2949990D01*
X4370016D01*
X4469984Y2890010D02*
X4429997D01*
X4469984Y2929997D01*
Y2939994D01*
X4459987Y2949990D01*
X4439994D01*
X4429997Y2939994D01*
X4380013Y2689990D02*
Y2630010D01*
X4410003D01*
X4420000Y2640006D01*
Y2679994D01*
X4410003Y2689990D01*
X4380013D01*
X4439994Y2630010D02*
X4459987D01*
X4449990D01*
Y2689990D01*
X4439994Y2679994D01*
X4140003Y2549994D02*
X4130007Y2559990D01*
X4110013D01*
X4100016Y2549994D01*
Y2510006D01*
X4110013Y2500010D01*
X4130007D01*
X4140003Y2510006D01*
X4199984Y2559990D02*
X4179990Y2549994D01*
X4159997Y2530000D01*
Y2510006D01*
X4169994Y2500010D01*
X4189987D01*
X4199984Y2510006D01*
Y2520003D01*
X4189987Y2530000D01*
X4159997D01*
X3720003Y2569994D02*
X3710006Y2579990D01*
X3690013D01*
X3680016Y2569994D01*
Y2530006D01*
X3690013Y2520010D01*
X3710006D01*
X3720003Y2530006D01*
X3779984Y2579990D02*
X3739997D01*
Y2550000D01*
X3759990Y2559997D01*
X3769987D01*
X3779984Y2550000D01*
Y2530006D01*
X3769987Y2520010D01*
X3749994D01*
X3739997Y2530006D01*
X4170007Y2330003D02*
X4160010Y2320006D01*
Y2300013D01*
X4170007Y2290016D01*
X4209993D01*
X4219990Y2300013D01*
Y2320006D01*
X4209993Y2330003D01*
X4219990Y2379987D02*
X4160010D01*
X4190000Y2349997D01*
Y2389984D01*
X4550007Y2330003D02*
X4540010Y2320006D01*
Y2300013D01*
X4550007Y2290016D01*
X4589993D01*
X4599990Y2300013D01*
Y2320006D01*
X4589993Y2330003D01*
X4550007Y2349997D02*
X4540010Y2359994D01*
Y2379987D01*
X4550007Y2389984D01*
X4560003D01*
X4570000Y2379987D01*
Y2369990D01*
Y2379987D01*
X4579997Y2389984D01*
X4589993D01*
X4599990Y2379987D01*
Y2359994D01*
X4589993Y2349997D01*
X4190003Y2669994D02*
X4180007Y2679990D01*
X4160013D01*
X4150016Y2669994D01*
Y2630006D01*
X4160013Y2620010D01*
X4180007D01*
X4190003Y2630006D01*
X4249984Y2620010D02*
X4209997D01*
X4249984Y2659997D01*
Y2669994D01*
X4239987Y2679990D01*
X4219994D01*
X4209997Y2669994D01*
X3610000D02*
X3600003Y2679990D01*
X3580010D01*
X3570013Y2669994D01*
Y2630006D01*
X3580010Y2620010D01*
X3600003D01*
X3610000Y2630006D01*
X3629994Y2620010D02*
X3649987D01*
X3639990D01*
Y2679990D01*
X3629994Y2669994D01*
D30*
X3144882Y2312402D02*
Y2687598D01*
X2954724Y2312402D02*
X3144882D01*
X2954724Y2687598D02*
X3144882D01*
X2954724Y2312402D02*
Y2687598D01*
X3354882Y2312402D02*
Y2687598D01*
X3164724Y2312402D02*
X3354882D01*
X3164724Y2687598D02*
X3354882D01*
X3164724Y2312402D02*
Y2687598D01*
X3169995Y2054990D02*
X3159998D01*
X3155000Y2049992D01*
Y2029998D01*
X3159998Y2025000D01*
X3169995D01*
X3174994Y2029998D01*
Y2049992D01*
X3169995Y2054990D01*
X3189989Y2025000D02*
Y2049992D01*
Y2039995D01*
X3184990D01*
X3194987D01*
X3189989D01*
Y2049992D01*
X3194987Y2054990D01*
X3214981Y2025000D02*
Y2049992D01*
Y2039995D01*
X3209982D01*
X3219979D01*
X3214981D01*
Y2049992D01*
X3219979Y2054990D01*
X3234974Y2025000D02*
X3249969D01*
X3254968Y2029998D01*
X3249969Y2034997D01*
X3239972D01*
X3234974Y2039995D01*
X3239972Y2044994D01*
X3254968D01*
X3279960Y2025000D02*
X3269963D01*
X3264964Y2029998D01*
Y2039995D01*
X3269963Y2044994D01*
X3279960D01*
X3284958Y2039995D01*
Y2034997D01*
X3264964D01*
X3299953Y2049992D02*
Y2044994D01*
X3294955D01*
X3304952D01*
X3299953D01*
Y2029998D01*
X3304952Y2025000D01*
X3414990Y2475006D02*
Y2495000D01*
X3399995D01*
Y2485003D01*
Y2495000D01*
X3385000D01*
Y2465010D02*
Y2455013D01*
Y2460011D01*
X3404994D01*
Y2465010D01*
X3385000Y2440018D02*
X3404994D01*
Y2425023D01*
X3399995Y2420024D01*
X3385000D01*
Y2395032D02*
Y2405029D01*
X3389998Y2410028D01*
X3399995D01*
X3404994Y2405029D01*
Y2395032D01*
X3399995Y2390034D01*
X3394997D01*
Y2410028D01*
X3409992Y2330053D02*
X3414990Y2335052D01*
Y2345048D01*
X3409992Y2350047D01*
X3389998D01*
X3385000Y2345048D01*
Y2335052D01*
X3389998Y2330053D01*
X3399995D01*
Y2340050D01*
X2910008Y2524994D02*
X2905010Y2519995D01*
Y2509998D01*
X2910008Y2505000D01*
X2930002D01*
X2935000Y2509998D01*
Y2519995D01*
X2930002Y2524994D01*
X2935000Y2539989D02*
Y2549985D01*
X2930002Y2554984D01*
X2920005D01*
X2915006Y2549985D01*
Y2539989D01*
X2920005Y2534990D01*
X2930002D01*
X2935000Y2539989D01*
X2915006Y2569979D02*
Y2579976D01*
X2920005Y2584974D01*
X2935000D01*
Y2569979D01*
X2930002Y2564981D01*
X2925003Y2569979D01*
Y2584974D01*
X2915006Y2594971D02*
X2935000D01*
X2925003D01*
X2920005Y2599969D01*
X2915006Y2604968D01*
Y2609966D01*
X2935000Y2624961D02*
Y2639956D01*
X2930002Y2644955D01*
X2925003Y2639956D01*
Y2629960D01*
X2920005Y2624961D01*
X2915006Y2629960D01*
Y2644955D01*
X2935000Y2669947D02*
Y2659950D01*
X2930002Y2654952D01*
X2920005D01*
X2915006Y2659950D01*
Y2669947D01*
X2920005Y2674945D01*
X2925003D01*
Y2654952D01*
X2910008Y2734926D02*
X2905010Y2729927D01*
Y2719930D01*
X2910008Y2714932D01*
X2930002D01*
X2935000Y2719930D01*
Y2729927D01*
X2930002Y2734926D01*
X2920005D01*
Y2724929D01*
X3125000Y2954987D02*
Y2924997D01*
X3139995D01*
X3144994Y2929995D01*
Y2934994D01*
X3139995Y2939992D01*
X3125000D01*
X3139995D01*
X3144994Y2944990D01*
Y2949989D01*
X3139995Y2954987D01*
X3125000D01*
X3154990Y2944990D02*
Y2924997D01*
Y2934994D01*
X3159989Y2939992D01*
X3164987Y2944990D01*
X3169985D01*
X3184981Y2924997D02*
X3194977D01*
X3189979D01*
Y2944990D01*
X3184981D01*
X3229966Y2954987D02*
Y2924997D01*
X3214971D01*
X3209972Y2929995D01*
Y2939992D01*
X3214971Y2944990D01*
X3229966D01*
X3249960Y2915000D02*
X3254958D01*
X3259956Y2919998D01*
Y2944990D01*
X3244961D01*
X3239963Y2939992D01*
Y2929995D01*
X3244961Y2924997D01*
X3259956D01*
X3284948D02*
X3274952D01*
X3269953Y2929995D01*
Y2939992D01*
X3274952Y2944990D01*
X3284948D01*
X3289947Y2939992D01*
Y2934994D01*
X3269953D01*
X3329934Y2954987D02*
Y2934994D01*
X3339930Y2924997D01*
X3349927Y2934994D01*
Y2954987D01*
D31*
X4253583Y2200000D02*
G03*
X4253583Y2200000I-4921J0D01*
G01*
X3368110Y2800000D02*
G03*
X3368110Y2800000I-4921J0D01*
G01*
X3708465Y2380433D02*
G03*
X3708465Y2380433I-4921J0D01*
G01*
X3368110Y2200000D02*
G03*
X3368110Y2200000I-4921J0D01*
G01*
X4524921Y2593071D02*
G03*
X4524921Y2593071I-4921J0D01*
G01*
X4573937Y2707126D02*
G03*
X4573937Y2707126I-4921J0D01*
G01*
D32*
X3053937Y2293307D02*
G03*
X3053937Y2293307I-3937J0D01*
G01*
X3263937D02*
G03*
X3263937Y2293307I-3937J0D01*
G01*
X4248661Y2255118D02*
X4512441D01*
X4248661Y2381102D02*
X4512441D01*
X4248661Y2255118D02*
Y2381102D01*
X4512441Y2255118D02*
Y2381102D01*
X3337598Y2704724D02*
Y2894882D01*
X2962402Y2704724D02*
X3337598D01*
X2962402Y2894882D02*
X3337598D01*
X2962402Y2704724D02*
Y2894685D01*
X3768504Y2171575D02*
X3831496D01*
X3768504Y2368425D02*
X3831496D01*
Y2171575D02*
Y2368425D01*
X3768504Y2171575D02*
Y2368425D01*
X3998425Y2451575D02*
Y2648425D01*
X3801575Y2451575D02*
X3998425D01*
X3801575D02*
Y2648425D01*
X3998425D01*
X3880315Y2418110D02*
X3919685D01*
X3900000Y2398425D02*
Y2437795D01*
X3511575Y2701575D02*
Y2898425D01*
X3708425D01*
Y2701575D02*
Y2898425D01*
X3511575Y2701575D02*
X3708425D01*
X3590315Y2931890D02*
X3629685D01*
X3610000Y2912205D02*
Y2951575D01*
X4091575Y2701575D02*
Y2898425D01*
X4288425D01*
Y2701575D02*
Y2898425D01*
X4091575Y2701575D02*
X4288425D01*
X4170315Y2931890D02*
X4209685D01*
X4190000Y2912205D02*
Y2951575D01*
X3337598Y2104724D02*
Y2294882D01*
X2962402Y2104724D02*
X3337598D01*
X2962402Y2294882D02*
X3337598D01*
X2962402Y2104724D02*
Y2294685D01*
X4550512Y2626535D02*
Y2693465D01*
X4489488Y2626535D02*
Y2693465D01*
X4496378Y2818347D02*
X4643622D01*
X4492441Y2750039D02*
X4512236D01*
X4627764D02*
X4647559D01*
Y2929961D01*
X4492441D02*
X4512236D01*
X4627764D02*
X4647559D01*
X4492441Y2750039D02*
Y2929961D01*
D33*
X3813000Y2716500D02*
Y2727400D01*
Y2922600D02*
Y2933500D01*
X3977000D01*
Y2716500D02*
Y2727400D01*
X3813000Y2716500D02*
X3977000D01*
Y2922600D02*
Y2933500D01*
D34*
X3767500Y2955653D02*
X3800823Y2922331D01*
X3767500D02*
X3800823Y2955653D01*
X3767500Y2938992D02*
X3800823D01*
X3784161Y2922331D02*
Y2955653D01*
%TF.MD5,f6032a268c17b96a1780ff031389490f*%
M02*
