%TF.GenerationSoftware,Altium Limited,Altium Designer,22.9.1 (49)*%
G04 Layer_Physical_Order=1*
G04 Layer_Color=255*
%FSLAX26Y26*%
%MOIN*%
%TF.SameCoordinates,1DAB686F-CFF3-4EBC-B241-DE3F9B15245D*%
%TF.FilePolarity,Positive*%
%TF.FileFunction,Copper,L1,Top,Signal*%
%TF.Part,Single*%
G01*
G75*
%TA.AperFunction,SMDPad,CuDef*%
%ADD10R,0.039370X0.086614*%
%ADD11R,0.129921X0.086614*%
%ADD12R,0.043307X0.041339*%
%ADD13O,0.098425X0.027559*%
%ADD14R,0.095000X0.126000*%
%ADD15R,0.054000X0.019000*%
%ADD16R,0.031496X0.031496*%
%ADD17R,0.037402X0.031496*%
%ADD18R,0.086000X0.067500*%
%TA.AperFunction,Conductor*%
%ADD19C,0.025000*%
%ADD20C,0.035000*%
%TA.AperFunction,ComponentPad*%
%ADD21C,0.100000*%
%ADD22R,0.051181X0.051181*%
%ADD23C,0.051181*%
%ADD24R,0.047244X0.047244*%
%ADD25C,0.047244*%
%ADD26C,0.047953*%
%ADD27R,0.047953X0.047953*%
%TA.AperFunction,ViaPad*%
%ADD28C,0.050000*%
G36*
X4916565Y2983277D02*
X4932493Y2978446D01*
X4947173Y2970599D01*
X4960040Y2960040D01*
X4970599Y2947173D01*
X4978446Y2932493D01*
X4983277Y2916565D01*
X4984842Y2900682D01*
X4984706Y2900000D01*
Y2100000D01*
X4984842Y2099318D01*
X4983277Y2083435D01*
X4978446Y2067507D01*
X4970599Y2052827D01*
X4960040Y2039960D01*
X4947173Y2029401D01*
X4932493Y2021554D01*
X4916565Y2016723D01*
X4900682Y2015158D01*
X4900000Y2015294D01*
X2600000D01*
X2599318Y2015158D01*
X2583435Y2016723D01*
X2567507Y2021554D01*
X2552827Y2029401D01*
X2539960Y2039960D01*
X2529401Y2052827D01*
X2521554Y2067507D01*
X2516723Y2083435D01*
X2515158Y2099318D01*
X2515294Y2100000D01*
Y2900000D01*
X2515158Y2900682D01*
X2516723Y2916565D01*
X2521554Y2932493D01*
X2529401Y2947173D01*
X2539960Y2960040D01*
X2552827Y2970599D01*
X2567507Y2978446D01*
X2583435Y2983277D01*
X2599318Y2984842D01*
X2600000Y2984706D01*
X3969804D01*
Y2919500D01*
X3963000D01*
Y2880500D01*
X3969804D01*
Y2869500D01*
X3963000D01*
Y2862500D01*
X3972648D01*
X3972789Y2862289D01*
X3976097Y2860078D01*
X3980000Y2859302D01*
X4000000D01*
Y2840698D01*
X3980000D01*
X3976097Y2839922D01*
X3972789Y2837711D01*
X3972648Y2837500D01*
X3963000D01*
Y2830500D01*
X3969804D01*
Y2819500D01*
X3963000D01*
Y2812500D01*
X3972648D01*
X3972789Y2812289D01*
X3976097Y2810078D01*
X3980000Y2809302D01*
X4000000D01*
Y2790698D01*
X3980000D01*
X3976097Y2789922D01*
X3972789Y2787711D01*
X3972648Y2787500D01*
X3963000D01*
Y2780500D01*
X3969804D01*
Y2769500D01*
X3963000D01*
Y2730500D01*
X3969804D01*
Y2680000D01*
X3970580Y2676098D01*
X3972790Y2672790D01*
X3976098Y2670580D01*
X3980000Y2669804D01*
X4429804D01*
Y2489528D01*
X4393051D01*
Y2436220D01*
Y2382913D01*
X4429804D01*
Y2257720D01*
X4430112Y2256171D01*
X4430293Y2254602D01*
X4431710Y2250189D01*
X4431915Y2249820D01*
X4431998Y2249405D01*
X4432875Y2248092D01*
X4433642Y2246711D01*
X4433973Y2246449D01*
X4434208Y2246098D01*
X4435521Y2245220D01*
X4436758Y2244238D01*
X4437164Y2244122D01*
X4437516Y2243887D01*
X4439064Y2243579D01*
X4440583Y2243145D01*
X4441417Y2238208D01*
Y2161792D01*
X4440583Y2156855D01*
X4439064Y2156421D01*
X4437515Y2156113D01*
X4437164Y2155878D01*
X4436758Y2155762D01*
X4435521Y2154780D01*
X4434208Y2153902D01*
X4433973Y2153551D01*
X4433642Y2153289D01*
X4432875Y2151907D01*
X4431998Y2150594D01*
X4431915Y2150180D01*
X4431710Y2149811D01*
X4430293Y2145398D01*
X4430112Y2143829D01*
X4429804Y2142280D01*
Y2132941D01*
X4165733D01*
X4141352Y2157322D01*
X4143266Y2161941D01*
X4158346D01*
Y2154213D01*
X4221654D01*
Y2161941D01*
X4260315D01*
Y2146693D01*
X4319685D01*
Y2253307D01*
X4260315D01*
Y2207823D01*
X4221654D01*
Y2227500D01*
X4158346D01*
Y2207823D01*
X4140349D01*
X3987439Y2360732D01*
X3979997Y2365705D01*
X3973155Y2367066D01*
X3971169Y2372151D01*
X4050790Y2451772D01*
X4081653D01*
Y2506890D01*
Y2525059D01*
X4018347D01*
Y2506890D01*
Y2484215D01*
X3927560Y2393429D01*
X3922941Y2395342D01*
Y2423485D01*
Y2476180D01*
X3926904Y2480143D01*
X3931331Y2487810D01*
X3933622Y2496361D01*
Y2505214D01*
X3931331Y2513765D01*
X3926904Y2521432D01*
X3920644Y2527692D01*
X3912978Y2532118D01*
X3904426Y2534409D01*
X3895574D01*
X3887022Y2532118D01*
X3879356Y2527692D01*
X3873096Y2521432D01*
X3868669Y2513765D01*
X3866378Y2505214D01*
Y2496361D01*
X3868669Y2487810D01*
X3873096Y2480143D01*
X3877059Y2476180D01*
Y2432987D01*
X3877013Y2432941D01*
X3826557D01*
X3821490Y2438007D01*
X3813510Y2442615D01*
X3804608Y2445000D01*
X3795392D01*
X3786490Y2442615D01*
X3778510Y2438007D01*
X3771993Y2431490D01*
X3767385Y2423510D01*
X3765000Y2414608D01*
Y2405392D01*
X3767385Y2396490D01*
X3771993Y2388510D01*
X3778510Y2381993D01*
X3786490Y2377385D01*
X3795392Y2375000D01*
X3804608D01*
X3813510Y2377385D01*
X3821490Y2381993D01*
X3826557Y2387059D01*
X3877059D01*
Y2369245D01*
X3861024D01*
X3851745Y2367400D01*
X3843880Y2362144D01*
X3838624Y2354278D01*
X3836778Y2345000D01*
X3838624Y2335722D01*
X3843880Y2327856D01*
X3851745Y2322600D01*
X3852003Y2322549D01*
Y2317451D01*
X3851745Y2317400D01*
X3843880Y2312144D01*
X3838624Y2304278D01*
X3836778Y2295000D01*
X3838624Y2285722D01*
X3843880Y2277856D01*
X3851745Y2272600D01*
X3852003Y2272549D01*
Y2267451D01*
X3851745Y2267400D01*
X3843880Y2262144D01*
X3838624Y2254278D01*
X3836778Y2245000D01*
X3838624Y2235722D01*
X3843880Y2227856D01*
X3851745Y2222600D01*
X3852003Y2222549D01*
Y2217451D01*
X3851745Y2217400D01*
X3843880Y2212144D01*
X3840776Y2207500D01*
X3896457D01*
X3952137D01*
X3949034Y2212144D01*
X3942411Y2216570D01*
X3943883Y2221570D01*
X3955987D01*
X4076704Y2100853D01*
Y2099147D01*
X4050498Y2072941D01*
X3309502D01*
X3222653Y2159790D01*
X3224567Y2164410D01*
X3253147D01*
X3313778Y2103778D01*
X3321221Y2098805D01*
X3330000Y2097059D01*
X3393443D01*
X3398510Y2091993D01*
X3406490Y2087385D01*
X3415392Y2085000D01*
X3424608D01*
X3433510Y2087385D01*
X3441490Y2091993D01*
X3448007Y2098510D01*
X3452615Y2106490D01*
X3455000Y2115392D01*
Y2124608D01*
X3452615Y2133510D01*
X3448007Y2141490D01*
X3441490Y2148007D01*
X3433510Y2152615D01*
X3424608Y2155000D01*
X3415392D01*
X3406490Y2152615D01*
X3398510Y2148007D01*
X3393443Y2142941D01*
X3339502D01*
X3285590Y2196853D01*
X3285591Y2235590D01*
X3289982Y2237059D01*
X3500498D01*
X3558778Y2178778D01*
X3566221Y2173805D01*
X3575000Y2172059D01*
X3661552D01*
X3668110Y2170755D01*
X3738976D01*
X3748255Y2172600D01*
X3756120Y2177856D01*
X3761376Y2185722D01*
X3763222Y2195000D01*
X3761376Y2204278D01*
X3756120Y2212144D01*
X3748255Y2217400D01*
X3747997Y2217451D01*
Y2222549D01*
X3748255Y2222600D01*
X3756120Y2227856D01*
X3761376Y2235722D01*
X3763222Y2245000D01*
X3761376Y2254278D01*
X3756120Y2262144D01*
X3748255Y2267400D01*
X3747997Y2267451D01*
Y2272549D01*
X3748255Y2272600D01*
X3756120Y2277856D01*
X3761376Y2285722D01*
X3763222Y2295000D01*
X3761376Y2304278D01*
X3756120Y2312144D01*
X3748255Y2317400D01*
X3747997Y2317451D01*
Y2322549D01*
X3748255Y2322600D01*
X3756120Y2327856D01*
X3761376Y2335722D01*
X3763222Y2345000D01*
X3761376Y2354278D01*
X3756120Y2362144D01*
X3748255Y2367400D01*
X3738976Y2369245D01*
X3668110D01*
X3661552Y2367941D01*
X3614503D01*
X3276222Y2706222D01*
X3268779Y2711195D01*
X3260000Y2712941D01*
X2750000D01*
X2741221Y2711195D01*
X2733778Y2706222D01*
X2682981Y2655424D01*
X2677501Y2657694D01*
X2665910Y2660000D01*
X2654090D01*
X2642499Y2657694D01*
X2631579Y2653171D01*
X2621752Y2646605D01*
X2613395Y2638248D01*
X2606829Y2628421D01*
X2602306Y2617501D01*
X2600000Y2605910D01*
Y2594090D01*
X2602306Y2582499D01*
X2606829Y2571579D01*
X2613395Y2561752D01*
X2621752Y2553395D01*
X2631579Y2546829D01*
X2642499Y2542306D01*
X2654090Y2540000D01*
X2665910D01*
X2677501Y2542306D01*
X2688421Y2546829D01*
X2698248Y2553395D01*
X2706605Y2561752D01*
X2713171Y2571579D01*
X2717694Y2582499D01*
X2720000Y2594090D01*
Y2605910D01*
X2717694Y2617501D01*
X2715424Y2622981D01*
X2759502Y2667059D01*
X3012985D01*
X3013889Y2662059D01*
X2987302Y2635473D01*
X2982329Y2628030D01*
X2980583Y2619251D01*
Y2546476D01*
X2982329Y2537697D01*
X2987302Y2530255D01*
X3016024Y2501533D01*
Y2495527D01*
X3018339Y2486886D01*
X3022812Y2479138D01*
X3029138Y2472812D01*
X3036886Y2468339D01*
X3045527Y2466024D01*
X3054473D01*
X3063114Y2468339D01*
X3070862Y2472812D01*
X3077188Y2479138D01*
X3081661Y2486886D01*
X3083976Y2495527D01*
Y2504473D01*
X3081661Y2513114D01*
X3077188Y2520862D01*
X3070862Y2527188D01*
X3063114Y2531661D01*
X3054473Y2533976D01*
X3048467D01*
X3026464Y2555979D01*
Y2568708D01*
X3031464Y2571469D01*
X3036886Y2568339D01*
X3045527Y2566024D01*
X3051533D01*
X3141443Y2476114D01*
Y2415844D01*
X3143189Y2407065D01*
X3148162Y2399622D01*
X3258154Y2289630D01*
X3260682Y2287941D01*
X3259166Y2282941D01*
X2809502D01*
X2715424Y2377019D01*
X2717694Y2382499D01*
X2720000Y2394090D01*
Y2405910D01*
X2717694Y2417501D01*
X2713171Y2428421D01*
X2706605Y2438248D01*
X2698248Y2446605D01*
X2688421Y2453171D01*
X2677501Y2457694D01*
X2665910Y2460000D01*
X2654090D01*
X2642499Y2457694D01*
X2631579Y2453171D01*
X2621752Y2446605D01*
X2613395Y2438248D01*
X2606829Y2428421D01*
X2602306Y2417501D01*
X2600000Y2405910D01*
Y2394090D01*
X2602306Y2382499D01*
X2606829Y2371579D01*
X2613395Y2361752D01*
X2621752Y2353395D01*
X2631579Y2346829D01*
X2642499Y2342306D01*
X2654090Y2340000D01*
X2665910D01*
X2677501Y2342306D01*
X2682981Y2344576D01*
X2783778Y2243778D01*
X2791221Y2238805D01*
X2800000Y2237059D01*
X3033007D01*
X3034347Y2232059D01*
X3028147Y2228479D01*
X3021521Y2221853D01*
X3016835Y2213737D01*
X3016503Y2212500D01*
X3050000D01*
X3083497D01*
X3083165Y2213737D01*
X3078479Y2221853D01*
X3071853Y2228479D01*
X3065653Y2232059D01*
X3066993Y2237059D01*
X3133007D01*
X3134347Y2232059D01*
X3128147Y2228479D01*
X3121521Y2221853D01*
X3116835Y2213737D01*
X3114410Y2204686D01*
Y2195314D01*
X3116835Y2186263D01*
X3121521Y2178147D01*
X3128147Y2171521D01*
X3136263Y2166835D01*
X3145314Y2164410D01*
X3153147D01*
X3283778Y2033778D01*
X3291221Y2028805D01*
X3300000Y2027059D01*
X4060000D01*
X4068779Y2028805D01*
X4076222Y2033778D01*
X4115866Y2073423D01*
X4120839Y2080866D01*
X4122586Y2089645D01*
Y2104131D01*
X4127586Y2106202D01*
X4140009Y2093778D01*
X4147452Y2088805D01*
X4156231Y2087059D01*
X4910000D01*
X4918779Y2088805D01*
X4926222Y2093778D01*
X4966222Y2133778D01*
X4971194Y2141221D01*
X4972941Y2150000D01*
Y2280000D01*
X4971194Y2288779D01*
X4966222Y2296222D01*
X4885424Y2377019D01*
X4887694Y2382499D01*
X4890000Y2394090D01*
Y2405910D01*
X4887694Y2417501D01*
X4883171Y2428421D01*
X4876605Y2438248D01*
X4868248Y2446605D01*
X4858421Y2453171D01*
X4847501Y2457694D01*
X4835909Y2460000D01*
X4824091D01*
X4812499Y2457694D01*
X4801579Y2453171D01*
X4791752Y2446605D01*
X4783395Y2438248D01*
X4776829Y2428421D01*
X4772306Y2417501D01*
X4770000Y2405910D01*
Y2394090D01*
X4772306Y2382499D01*
X4776829Y2371579D01*
X4783395Y2361752D01*
X4791752Y2353395D01*
X4801579Y2346829D01*
X4812499Y2342306D01*
X4824091Y2340000D01*
X4835909D01*
X4847501Y2342306D01*
X4852981Y2344576D01*
X4927059Y2270498D01*
Y2159502D01*
X4900498Y2132941D01*
X4670196D01*
Y2217059D01*
X4669420Y2220961D01*
X4667210Y2224269D01*
X4663902Y2226479D01*
X4660000Y2227255D01*
X4591654D01*
Y2227500D01*
X4560000D01*
Y2252500D01*
X4591654D01*
Y2252745D01*
X4660000D01*
X4663902Y2253521D01*
X4667210Y2255731D01*
X4669420Y2259039D01*
X4670196Y2262941D01*
Y2590662D01*
X4669420Y2594563D01*
X4667210Y2597871D01*
X4663902Y2600081D01*
X4660000Y2600857D01*
X4648701D01*
Y2626347D01*
X4660000D01*
X4663902Y2627123D01*
X4667210Y2629334D01*
X4669420Y2632641D01*
X4670196Y2636543D01*
Y2870000D01*
X4669420Y2873902D01*
X4667210Y2877210D01*
X4663902Y2879420D01*
X4660000Y2880196D01*
X4623000D01*
Y2888513D01*
X4702261D01*
X4772589Y2818185D01*
X4772306Y2817501D01*
X4770000Y2805910D01*
Y2794090D01*
X4772306Y2782499D01*
X4776829Y2771579D01*
X4783395Y2761752D01*
X4791752Y2753395D01*
X4801579Y2746829D01*
X4812499Y2742306D01*
X4824091Y2740000D01*
X4835909D01*
X4847501Y2742306D01*
X4858421Y2746829D01*
X4868248Y2753395D01*
X4876605Y2761752D01*
X4883171Y2771579D01*
X4887694Y2782499D01*
X4890000Y2794090D01*
Y2805910D01*
X4887694Y2817501D01*
X4883171Y2828421D01*
X4876605Y2838248D01*
X4868248Y2846605D01*
X4858421Y2853171D01*
X4847501Y2857694D01*
X4835909Y2860000D01*
X4824091D01*
X4812499Y2857694D01*
X4811815Y2857411D01*
X4733363Y2935863D01*
X4727619Y2940271D01*
X4720929Y2943042D01*
X4713750Y2943987D01*
X4623000D01*
Y2960000D01*
X4517000D01*
Y2880196D01*
X4380196D01*
Y2984706D01*
X4900000D01*
X4900682Y2984842D01*
X4916565Y2983277D01*
D02*
G37*
G36*
X4370000Y2870000D02*
X4660000D01*
Y2636543D01*
X4648701D01*
Y2642598D01*
X4648701Y2642598D01*
Y2644252D01*
X4648701D01*
X4648701Y2647598D01*
Y2695748D01*
X4591299D01*
Y2685571D01*
X4587411Y2682974D01*
X4557851Y2653413D01*
X4545748D01*
Y2656220D01*
X4494252D01*
Y2604724D01*
X4545748D01*
Y2607532D01*
X4567353D01*
X4576132Y2609278D01*
X4583575Y2614251D01*
X4586680Y2617356D01*
X4591299Y2615442D01*
Y2591102D01*
X4621032D01*
X4623248Y2590662D01*
X4660000D01*
Y2262941D01*
X4591654D01*
Y2270669D01*
X4528346D01*
Y2209331D01*
Y2197382D01*
X4591654D01*
Y2217059D01*
X4660000D01*
Y2132941D01*
X4440000D01*
Y2142280D01*
X4441417Y2146693D01*
X4445000Y2146693D01*
X4458602D01*
Y2200000D01*
Y2253307D01*
X4441417D01*
X4440000Y2257720D01*
Y2382913D01*
X4455512D01*
Y2489528D01*
X4440000D01*
Y2680000D01*
X3980000D01*
Y2730500D01*
X3987500D01*
Y2750000D01*
Y2769500D01*
X3980000D01*
Y2780500D01*
X4037000D01*
Y2819500D01*
X3980000D01*
Y2830500D01*
X4037000D01*
Y2869500D01*
X3980000D01*
Y2880500D01*
X3987500D01*
Y2900000D01*
Y2919500D01*
X3980000D01*
Y2984706D01*
X4370000D01*
Y2870000D01*
D02*
G37*
%LPC*%
G36*
X3790000Y2922941D02*
X3722653D01*
X3713874Y2921195D01*
X3706432Y2916222D01*
X3662364Y2872153D01*
X3634608D01*
X3630644Y2876117D01*
X3622978Y2880543D01*
X3614426Y2882835D01*
X3605574D01*
X3603388Y2882249D01*
X3586324Y2899312D01*
X3578882Y2904285D01*
X3570103Y2906031D01*
X3133091D01*
X3124312Y2904285D01*
X3116869Y2899312D01*
X3053147Y2835590D01*
X3045314D01*
X3036263Y2833165D01*
X3028147Y2828479D01*
X3022608Y2822941D01*
X2715441D01*
X2713171Y2828421D01*
X2706605Y2838248D01*
X2698248Y2846605D01*
X2688421Y2853171D01*
X2677501Y2857694D01*
X2665910Y2860000D01*
X2654090D01*
X2642499Y2857694D01*
X2631579Y2853171D01*
X2621752Y2846605D01*
X2613395Y2838248D01*
X2606829Y2828421D01*
X2602306Y2817501D01*
X2600000Y2805910D01*
Y2794090D01*
X2602306Y2782499D01*
X2606829Y2771579D01*
X2613395Y2761752D01*
X2621752Y2753395D01*
X2631579Y2746829D01*
X2642499Y2742306D01*
X2654090Y2740000D01*
X2665910D01*
X2677501Y2742306D01*
X2688421Y2746829D01*
X2698248Y2753395D01*
X2706605Y2761752D01*
X2713171Y2771579D01*
X2715441Y2777059D01*
X3022608D01*
X3028147Y2771521D01*
X3036263Y2766835D01*
X3045314Y2764410D01*
X3054686D01*
X3063737Y2766835D01*
X3071853Y2771521D01*
X3078479Y2778147D01*
X3083165Y2786263D01*
X3085590Y2795314D01*
Y2803147D01*
X3142593Y2860150D01*
X3171174D01*
X3173087Y2855530D01*
X3153147Y2835590D01*
X3145314D01*
X3136263Y2833165D01*
X3128147Y2828479D01*
X3121521Y2821853D01*
X3116835Y2813737D01*
X3114410Y2804686D01*
Y2795314D01*
X3116835Y2786263D01*
X3121521Y2778147D01*
X3128147Y2771521D01*
X3136263Y2766835D01*
X3145314Y2764410D01*
X3154686D01*
X3163737Y2766835D01*
X3171853Y2771521D01*
X3178479Y2778147D01*
X3183165Y2786263D01*
X3185590Y2795314D01*
Y2803147D01*
X3207593Y2825150D01*
X3214410D01*
Y2812500D01*
X3250000D01*
X3285590D01*
Y2825150D01*
X3385137D01*
X3423418Y2786869D01*
X3430861Y2781896D01*
X3439640Y2780150D01*
X3576378D01*
Y2763287D01*
X3610000D01*
X3643622D01*
Y2780150D01*
X3675241D01*
X3684020Y2781896D01*
X3691463Y2786869D01*
X3731653Y2827059D01*
X3790000D01*
X3798779Y2828805D01*
X3801315Y2830500D01*
X3827000D01*
Y2869500D01*
X3801315D01*
X3798779Y2871195D01*
X3792462Y2872451D01*
Y2877549D01*
X3798779Y2878805D01*
X3801315Y2880500D01*
X3827000D01*
Y2919500D01*
X3801315D01*
X3798779Y2921195D01*
X3790000Y2922941D01*
D02*
G37*
G36*
X3952500Y2898000D02*
X3907500D01*
Y2837500D01*
X3952500D01*
Y2898000D01*
D02*
G37*
G36*
X3882500D02*
X3837500D01*
Y2837500D01*
X3882500D01*
Y2898000D01*
D02*
G37*
G36*
X3827000Y2819500D02*
X3802500D01*
Y2812500D01*
X3827000D01*
Y2819500D01*
D02*
G37*
G36*
X3777500D02*
X3753000D01*
Y2812500D01*
X3777500D01*
Y2819500D01*
D02*
G37*
G36*
X3827000Y2787500D02*
X3802500D01*
Y2780500D01*
X3827000D01*
Y2787500D01*
D02*
G37*
G36*
X3777500D02*
X3753000D01*
Y2780500D01*
X3777500D01*
Y2787500D01*
D02*
G37*
G36*
X3285590D02*
X3262500D01*
Y2764410D01*
X3285590D01*
Y2787500D01*
D02*
G37*
G36*
X3237500D02*
X3214410D01*
Y2764410D01*
X3237500D01*
Y2787500D01*
D02*
G37*
G36*
X3827000Y2769500D02*
X3802500D01*
Y2762500D01*
X3827000D01*
Y2769500D01*
D02*
G37*
G36*
X3777500D02*
X3753000D01*
Y2762500D01*
X3777500D01*
Y2769500D01*
D02*
G37*
G36*
X3952500Y2812500D02*
X3907500D01*
Y2752000D01*
X3952500D01*
Y2812500D01*
D02*
G37*
G36*
X3882500D02*
X3837500D01*
Y2752000D01*
X3882500D01*
Y2812500D01*
D02*
G37*
G36*
X3827000Y2737500D02*
X3802500D01*
Y2730500D01*
X3827000D01*
Y2737500D01*
D02*
G37*
G36*
X3777500D02*
X3753000D01*
Y2730500D01*
X3777500D01*
Y2737500D01*
D02*
G37*
G36*
X3643622Y2738287D02*
X3622500D01*
Y2717165D01*
X3643622D01*
Y2738287D01*
D02*
G37*
G36*
X3597500D02*
X3576378D01*
Y2717165D01*
X3597500D01*
Y2738287D01*
D02*
G37*
G36*
X4842500Y2658689D02*
Y2612500D01*
X4888689D01*
X4887694Y2617501D01*
X4883171Y2628421D01*
X4876605Y2638248D01*
X4868248Y2646605D01*
X4858421Y2653171D01*
X4847501Y2657694D01*
X4842500Y2658689D01*
D02*
G37*
G36*
X4817500D02*
X4812499Y2657694D01*
X4801579Y2653171D01*
X4791752Y2646605D01*
X4783395Y2638248D01*
X4776829Y2628421D01*
X4772306Y2617501D01*
X4771311Y2612500D01*
X4817500D01*
Y2658689D01*
D02*
G37*
G36*
X3933622Y2632835D02*
X3912500D01*
Y2611713D01*
X3933622D01*
Y2632835D01*
D02*
G37*
G36*
X3887500D02*
X3866378D01*
Y2611713D01*
X3887500D01*
Y2632835D01*
D02*
G37*
G36*
X3933622Y2586713D02*
X3912500D01*
Y2565591D01*
X3933622D01*
Y2586713D01*
D02*
G37*
G36*
X3887500D02*
X3866378D01*
Y2565591D01*
X3887500D01*
Y2586713D01*
D02*
G37*
G36*
X4081653Y2568228D02*
X4062500D01*
Y2550059D01*
X4081653D01*
Y2568228D01*
D02*
G37*
G36*
X4037500D02*
X4018347D01*
Y2550059D01*
X4037500D01*
Y2568228D01*
D02*
G37*
G36*
X4888689Y2587500D02*
X4842500D01*
Y2541311D01*
X4847501Y2542306D01*
X4858421Y2546829D01*
X4868248Y2553395D01*
X4876605Y2561752D01*
X4883171Y2571579D01*
X4887694Y2582499D01*
X4888689Y2587500D01*
D02*
G37*
G36*
X4817500D02*
X4771311D01*
X4772306Y2582499D01*
X4776829Y2571579D01*
X4783395Y2561752D01*
X4791752Y2553395D01*
X4801579Y2546829D01*
X4812499Y2542306D01*
X4817500Y2541311D01*
Y2587500D01*
D02*
G37*
G36*
X4368051Y2489528D02*
X4305591D01*
Y2448720D01*
X4368051D01*
Y2489528D01*
D02*
G37*
G36*
Y2423720D02*
X4305591D01*
Y2382913D01*
X4368051D01*
Y2423720D01*
D02*
G37*
G36*
X3083976Y2433976D02*
X3016024D01*
Y2366024D01*
X3083976D01*
Y2433976D01*
D02*
G37*
G36*
X4221654Y2270669D02*
X4202500D01*
Y2252500D01*
X4221654D01*
Y2270669D01*
D02*
G37*
G36*
X4177500D02*
X4158346D01*
Y2252500D01*
X4177500D01*
Y2270669D01*
D02*
G37*
G36*
X4410236Y2253307D02*
X4393051D01*
Y2212500D01*
X4410236D01*
Y2253307D01*
D02*
G37*
G36*
X2672500Y2258689D02*
Y2212500D01*
X2718689D01*
X2717694Y2217501D01*
X2713171Y2228421D01*
X2706605Y2238248D01*
X2698248Y2246605D01*
X2688421Y2253171D01*
X2677501Y2257694D01*
X2672500Y2258689D01*
D02*
G37*
G36*
X4842500D02*
Y2212500D01*
X4888689D01*
X4887694Y2217501D01*
X4883171Y2228421D01*
X4876605Y2238248D01*
X4868248Y2246605D01*
X4858421Y2253171D01*
X4847501Y2257694D01*
X4842500Y2258689D01*
D02*
G37*
G36*
X4817500D02*
X4812499Y2257694D01*
X4801579Y2253171D01*
X4791752Y2246605D01*
X4783395Y2238248D01*
X4776829Y2228421D01*
X4772306Y2217501D01*
X4771311Y2212500D01*
X4817500D01*
Y2258689D01*
D02*
G37*
G36*
X2647500D02*
X2642499Y2257694D01*
X2631579Y2253171D01*
X2621752Y2246605D01*
X2613395Y2238248D01*
X2606829Y2228421D01*
X2602306Y2217501D01*
X2601311Y2212500D01*
X2647500D01*
Y2258689D01*
D02*
G37*
G36*
X4368051Y2253307D02*
X4350866D01*
Y2212500D01*
X4368051D01*
Y2253307D01*
D02*
G37*
G36*
X3952137Y2182500D02*
X3908957D01*
Y2170755D01*
X3931890D01*
X3941168Y2172600D01*
X3949034Y2177856D01*
X3952137Y2182500D01*
D02*
G37*
G36*
X3883957D02*
X3840776D01*
X3843880Y2177856D01*
X3851745Y2172600D01*
X3861024Y2170755D01*
X3883957D01*
Y2182500D01*
D02*
G37*
G36*
X3083497Y2187500D02*
X3062500D01*
Y2166503D01*
X3063737Y2166835D01*
X3071853Y2171521D01*
X3078479Y2178147D01*
X3083165Y2186263D01*
X3083497Y2187500D01*
D02*
G37*
G36*
X3037500D02*
X3016503D01*
X3016835Y2186263D01*
X3021521Y2178147D01*
X3028147Y2171521D01*
X3036263Y2166835D01*
X3037500Y2166503D01*
Y2187500D01*
D02*
G37*
G36*
X4410236D02*
X4393051D01*
Y2146693D01*
X4410236D01*
Y2187500D01*
D02*
G37*
G36*
X4368051D02*
X4350866D01*
Y2146693D01*
X4368051D01*
Y2187500D01*
D02*
G37*
G36*
X4888689D02*
X4842500D01*
Y2141311D01*
X4847501Y2142306D01*
X4858421Y2146829D01*
X4868248Y2153395D01*
X4876605Y2161752D01*
X4883171Y2171579D01*
X4887694Y2182499D01*
X4888689Y2187500D01*
D02*
G37*
G36*
X2718689D02*
X2672500D01*
Y2141311D01*
X2677501Y2142306D01*
X2688421Y2146829D01*
X2698248Y2153395D01*
X2706605Y2161752D01*
X2713171Y2171579D01*
X2717694Y2182499D01*
X2718689Y2187500D01*
D02*
G37*
G36*
X4817500D02*
X4771311D01*
X4772306Y2182499D01*
X4776829Y2171579D01*
X4783395Y2161752D01*
X4791752Y2153395D01*
X4801579Y2146829D01*
X4812499Y2142306D01*
X4817500Y2141311D01*
Y2187500D01*
D02*
G37*
G36*
X2647500D02*
X2601311D01*
X2602306Y2182499D01*
X2606829Y2171579D01*
X2613395Y2161752D01*
X2621752Y2153395D01*
X2631579Y2146829D01*
X2642499Y2142306D01*
X2647500Y2141311D01*
Y2187500D01*
D02*
G37*
G36*
X4037000Y2919500D02*
X4012500D01*
Y2912500D01*
X4037000D01*
Y2919500D01*
D02*
G37*
G36*
Y2887500D02*
X4012500D01*
Y2880500D01*
X4037000D01*
Y2887500D01*
D02*
G37*
G36*
X4202500Y2880671D02*
Y2861713D01*
X4221459D01*
X4221331Y2862190D01*
X4216904Y2869857D01*
X4210644Y2876117D01*
X4202978Y2880543D01*
X4202500Y2880671D01*
D02*
G37*
G36*
X4177500D02*
X4177022Y2880543D01*
X4169356Y2876117D01*
X4163096Y2869857D01*
X4158669Y2862190D01*
X4158541Y2861713D01*
X4177500D01*
Y2880671D01*
D02*
G37*
G36*
X4221459Y2836713D02*
X4202500D01*
Y2817754D01*
X4202978Y2817882D01*
X4210644Y2822308D01*
X4216904Y2828568D01*
X4221331Y2836235D01*
X4221459Y2836713D01*
D02*
G37*
G36*
X4177500D02*
X4158541D01*
X4158669Y2836235D01*
X4163096Y2828568D01*
X4169356Y2822308D01*
X4177022Y2817882D01*
X4177500Y2817754D01*
Y2836713D01*
D02*
G37*
G36*
X4623000Y2807500D02*
X4582500D01*
Y2776250D01*
X4623000D01*
Y2807500D01*
D02*
G37*
G36*
X4557500D02*
X4517000D01*
Y2776250D01*
X4557500D01*
Y2807500D01*
D02*
G37*
G36*
X4037000Y2769500D02*
X4012500D01*
Y2762500D01*
X4037000D01*
Y2769500D01*
D02*
G37*
G36*
Y2737500D02*
X4012500D01*
Y2730500D01*
X4037000D01*
Y2737500D01*
D02*
G37*
G36*
X4623000Y2751250D02*
X4582500D01*
Y2720000D01*
X4623000D01*
Y2751250D01*
D02*
G37*
G36*
X4223622Y2784409D02*
X4156378D01*
Y2717165D01*
X4223622D01*
Y2784409D01*
D02*
G37*
G36*
X4557500Y2751250D02*
X4517000D01*
Y2720276D01*
X4517000Y2720000D01*
X4516335Y2715276D01*
X4494252D01*
Y2702028D01*
X4520000D01*
X4545748D01*
Y2715000D01*
X4545748Y2715276D01*
X4546413Y2720000D01*
X4557500D01*
Y2751250D01*
D02*
G37*
G36*
X4545748Y2677028D02*
X4532500D01*
Y2663780D01*
X4545748D01*
Y2677028D01*
D02*
G37*
G36*
X4507500D02*
X4494252D01*
Y2663780D01*
X4507500D01*
Y2677028D01*
D02*
G37*
G36*
X4483602Y2253307D02*
Y2212500D01*
X4500787D01*
Y2253307D01*
X4483602D01*
D02*
G37*
G36*
X4591654Y2172382D02*
X4572500D01*
Y2154213D01*
X4591654D01*
Y2172382D01*
D02*
G37*
G36*
X4547500D02*
X4528346D01*
Y2154213D01*
X4547500D01*
Y2172382D01*
D02*
G37*
G36*
X4500787Y2187500D02*
X4483602D01*
Y2146693D01*
X4500787D01*
Y2187500D01*
D02*
G37*
%LPD*%
D10*
X4290000Y2200000D02*
D03*
X4380551D02*
D03*
X4471102D02*
D03*
D11*
X4380551Y2436220D02*
D03*
D12*
X4050000Y2537559D02*
D03*
Y2482441D02*
D03*
X4190000Y2184882D02*
D03*
Y2240000D02*
D03*
X4560000Y2184882D02*
D03*
Y2240000D02*
D03*
D13*
X3896457Y2195000D02*
D03*
Y2245000D02*
D03*
Y2295000D02*
D03*
Y2345000D02*
D03*
X3703543Y2195000D02*
D03*
Y2245000D02*
D03*
Y2295000D02*
D03*
Y2345000D02*
D03*
D14*
X3895000Y2825000D02*
D03*
D15*
X4000000Y2900000D02*
D03*
Y2850000D02*
D03*
Y2800000D02*
D03*
Y2750000D02*
D03*
X3790000D02*
D03*
Y2800000D02*
D03*
Y2850000D02*
D03*
Y2900000D02*
D03*
D16*
X4520000Y2689528D02*
D03*
Y2630472D02*
D03*
D17*
X4620000Y2670000D02*
D03*
Y2616850D02*
D03*
D18*
X4570000Y2916250D02*
D03*
Y2763750D02*
D03*
D19*
X4560000Y2240000D02*
X4769705D01*
X4809705Y2200000D01*
X4830000D01*
X4623248Y2613602D02*
X4816398D01*
X4830000Y2600000D01*
X4620000Y2616850D02*
X4623248Y2613602D01*
X3900000Y2423485D02*
Y2500787D01*
Y2346182D02*
Y2423485D01*
X3800000Y2410000D02*
X3886515D01*
X3900000Y2423485D01*
X3330000Y2120000D02*
X3420000D01*
X3250000Y2200000D02*
X3330000Y2120000D01*
X2800000Y2260000D02*
X3510000D01*
X2660000Y2400000D02*
X2800000Y2260000D01*
X3513645Y2305852D02*
X3574497Y2245000D01*
X3274375Y2305852D02*
X3513645D01*
X3164384Y2415844D02*
X3274375Y2305852D01*
X3510000Y2260000D02*
X3575000Y2195000D01*
X3703543D01*
X4130846Y2184882D02*
X4282815D01*
X3965490Y2244510D02*
X4099645Y2110355D01*
Y2089645D02*
Y2110355D01*
X3971231Y2295000D02*
X4156231Y2110000D01*
X3931197Y2344510D02*
X3971218D01*
X4060000Y2050000D02*
X4099645Y2089645D01*
X4156231Y2110000D02*
X4910000D01*
X3896457Y2295000D02*
X3971231D01*
X3971218Y2344510D02*
X4130846Y2184882D01*
X4830000Y2400000D02*
X4950000Y2280000D01*
X4910000Y2110000D02*
X4950000Y2150000D01*
X3896946Y2244510D02*
X3965490D01*
X4950000Y2150000D02*
Y2280000D01*
X3931197Y2345000D02*
X3932379Y2346182D01*
X3898818Y2345000D02*
X3931197D01*
X3932379Y2346182D02*
Y2365805D01*
X3896457Y2245000D02*
X3896946Y2244510D01*
X3300000Y2050000D02*
X4060000D01*
X3150000Y2200000D02*
X3300000Y2050000D01*
X4290000Y2192067D02*
Y2200000D01*
X4282815Y2184882D02*
X4290000Y2192067D01*
X3896457Y2345000D02*
X3898818D01*
X4049016Y2482441D02*
X4050000D01*
X3932379Y2365805D02*
X4049016Y2482441D01*
X3898818Y2345000D02*
X3900000Y2346182D01*
X3570103Y2883091D02*
X3603981Y2849213D01*
X3050000Y2800000D02*
X3133091Y2883091D01*
X3570103D01*
X3603981Y2849213D02*
X3610000D01*
X3394640Y2848091D02*
X3439640Y2803090D01*
X3198091Y2848091D02*
X3394640D01*
X3150000Y2800000D02*
X3198091Y2848091D01*
X3671866Y2849213D02*
X3722653Y2900000D01*
X3722151Y2850000D02*
X3790000D01*
X3610000Y2849213D02*
X3671866D01*
X3675241Y2803090D02*
X3722151Y2850000D01*
X3439640Y2803090D02*
X3675241D01*
X3722653Y2900000D02*
X3790000D01*
X4616752Y2666752D02*
X4620000Y2670000D01*
X4520000Y2630472D02*
X4567353D01*
X4603633Y2666752D01*
X4616752D01*
X3003524Y2546476D02*
X3050000Y2500000D01*
X3003524Y2546476D02*
Y2619251D01*
X3030749Y2646476D01*
X3213524D01*
X3260000Y2600000D01*
Y2500000D02*
X3368995D01*
X3573995Y2295000D02*
X3703543D01*
X3368995Y2500000D02*
X3573995Y2295000D01*
X3050000Y2600000D02*
X3164384Y2485616D01*
Y2415844D02*
Y2485616D01*
X3574497Y2245000D02*
X3703543D01*
X3260000Y2690000D02*
X3605000Y2345000D01*
X2750000Y2690000D02*
X3260000D01*
X3605000Y2345000D02*
X3703543D01*
X2660000Y2600000D02*
X2750000Y2690000D01*
X2660000Y2800000D02*
X3050000D01*
D20*
X4713750Y2916250D02*
X4830000Y2800000D01*
X4570000Y2916250D02*
X4713750D01*
D21*
X2660000Y2600000D02*
D03*
Y2400000D02*
D03*
Y2200000D02*
D03*
Y2800000D02*
D03*
X4830000Y2600000D02*
D03*
Y2400000D02*
D03*
Y2200000D02*
D03*
Y2800000D02*
D03*
D22*
X3250000D02*
D03*
Y2200000D02*
D03*
D23*
X3150000Y2800000D02*
D03*
X3050000D02*
D03*
X3150000Y2200000D02*
D03*
X3050000D02*
D03*
D24*
X3900000Y2599213D02*
D03*
X3610000Y2750787D02*
D03*
X4190000D02*
D03*
D25*
X3900000Y2500787D02*
D03*
X3610000Y2849213D02*
D03*
X4190000D02*
D03*
D26*
X3050000Y2600000D02*
D03*
Y2500000D02*
D03*
X3260000Y2600000D02*
D03*
Y2500000D02*
D03*
D27*
X3050000Y2400000D02*
D03*
X3260000D02*
D03*
D28*
X3800000Y2410000D02*
D03*
X3420000Y2120000D02*
D03*
%TF.MD5,76f993823974f96042a70211e048578e*%
M02*
