%TF.GenerationSoftware,Altium Limited,Altium Designer,22.9.1 (49)*%
G04 Layer_Color=32896*
%FSLAX26Y26*%
%MOIN*%
%TF.SameCoordinates,1DAB686F-CFF3-4EBC-B241-DE3F9B15245D*%
%TF.FilePolarity,Positive*%
%TF.FileFunction,Legend,Bot*%
%TF.Part,Single*%
G01*
G75*
%TA.AperFunction,NonConductor*%
%ADD29C,0.010000*%
%ADD30C,0.005000*%
D29*
X3916613Y2159984D02*
Y2118331D01*
X3908282Y2110000D01*
X3891621D01*
X3883290Y2118331D01*
Y2159984D01*
X3866629D02*
Y2110000D01*
X3841637D01*
X3833306Y2118331D01*
Y2126661D01*
X3841637Y2134992D01*
X3866629D01*
X3841637D01*
X3833306Y2143323D01*
Y2151653D01*
X3841637Y2159984D01*
X3866629D01*
X3733339Y2151653D02*
X3741669Y2159984D01*
X3758331D01*
X3766661Y2151653D01*
Y2143323D01*
X3758331Y2134992D01*
X3741669D01*
X3733339Y2126661D01*
Y2118331D01*
X3741669Y2110000D01*
X3758331D01*
X3766661Y2118331D01*
X3683355Y2159984D02*
X3716677D01*
Y2110000D01*
X3683355D01*
X3716677Y2134992D02*
X3700016D01*
X3666694Y2159984D02*
Y2110000D01*
X3641702D01*
X3633371Y2118331D01*
Y2151653D01*
X3641702Y2159984D01*
X3666694D01*
X3583387Y2151653D02*
X3591718Y2159984D01*
X3608379D01*
X3616710Y2151653D01*
Y2143323D01*
X3608379Y2134992D01*
X3591718D01*
X3583387Y2126661D01*
Y2118331D01*
X3591718Y2110000D01*
X3608379D01*
X3616710Y2118331D01*
X4049903Y2959984D02*
Y2926661D01*
X4033242Y2910000D01*
X4016580Y2926661D01*
Y2959984D01*
X3974927Y2910000D02*
X3991588D01*
X3999919Y2918331D01*
Y2934992D01*
X3991588Y2943323D01*
X3974927D01*
X3966597Y2934992D01*
Y2926661D01*
X3999919D01*
X3949935Y2943323D02*
Y2910000D01*
Y2926661D01*
X3941605Y2934992D01*
X3933274Y2943323D01*
X3924943D01*
X3899952Y2910000D02*
X3874960D01*
X3866629Y2918331D01*
X3874960Y2926661D01*
X3891621D01*
X3899952Y2934992D01*
X3891621Y2943323D01*
X3866629D01*
X3849968Y2910000D02*
X3833306D01*
X3841637D01*
Y2943323D01*
X3849968D01*
X3799984Y2910000D02*
X3783323D01*
X3774992Y2918331D01*
Y2934992D01*
X3783323Y2943323D01*
X3799984D01*
X3808314Y2934992D01*
Y2918331D01*
X3799984Y2910000D01*
X3758331D02*
Y2943323D01*
X3733339D01*
X3725008Y2934992D01*
Y2910000D01*
X3658363D02*
X3641702D01*
X3650032D01*
Y2959984D01*
X3658363Y2951653D01*
X3616710Y2910000D02*
Y2918331D01*
X3608379D01*
Y2910000D01*
X3616710D01*
X3575057Y2951653D02*
X3566726Y2959984D01*
X3550065D01*
X3541734Y2951653D01*
Y2918331D01*
X3550065Y2910000D01*
X3566726D01*
X3575057Y2918331D01*
Y2951653D01*
X3525073Y2910000D02*
Y2918331D01*
X3516742D01*
Y2910000D01*
X3525073D01*
X3483420Y2951653D02*
X3475089Y2959984D01*
X3458428D01*
X3450097Y2951653D01*
Y2918331D01*
X3458428Y2910000D01*
X3475089D01*
X3483420Y2918331D01*
Y2951653D01*
X4324814Y2076645D02*
X4308153D01*
X4316483D01*
Y2026661D01*
X4324814D01*
X4308153D01*
X4283161D02*
Y2059984D01*
X4258169D01*
X4249838Y2051653D01*
Y2026661D01*
X4233177D02*
X4208185D01*
X4199854Y2034992D01*
X4208185Y2043323D01*
X4224846D01*
X4233177Y2051653D01*
X4224846Y2059984D01*
X4199854D01*
X4174862Y2068314D02*
Y2059984D01*
X4183193D01*
X4166532D01*
X4174862D01*
Y2034992D01*
X4166532Y2026661D01*
X4141540Y2059984D02*
Y2026661D01*
Y2043323D01*
X4133209Y2051653D01*
X4124878Y2059984D01*
X4116548D01*
X4091556D02*
Y2034992D01*
X4083225Y2026661D01*
X4058233D01*
Y2059984D01*
X4041572Y2026661D02*
Y2059984D01*
X4033242D01*
X4024911Y2051653D01*
Y2026661D01*
Y2051653D01*
X4016580Y2059984D01*
X4008250Y2051653D01*
Y2026661D01*
X3966597D02*
X3983258D01*
X3991588Y2034992D01*
Y2051653D01*
X3983258Y2059984D01*
X3966597D01*
X3958266Y2051653D01*
Y2043323D01*
X3991588D01*
X3941605Y2026661D02*
Y2059984D01*
X3916613D01*
X3908282Y2051653D01*
Y2026661D01*
X3883290Y2068314D02*
Y2059984D01*
X3891621D01*
X3874959D01*
X3883290D01*
Y2034992D01*
X3874959Y2026661D01*
X3841637Y2059984D02*
X3824976D01*
X3816645Y2051653D01*
Y2026661D01*
X3841637D01*
X3849968Y2034992D01*
X3841637Y2043323D01*
X3816645D01*
X3791653Y2068314D02*
Y2059984D01*
X3799984D01*
X3783323D01*
X3791653D01*
Y2034992D01*
X3783323Y2026661D01*
X3758331D02*
X3741669D01*
X3750000D01*
Y2059984D01*
X3758331D01*
X3708347Y2026661D02*
X3691686D01*
X3683355Y2034992D01*
Y2051653D01*
X3691686Y2059984D01*
X3708347D01*
X3716677Y2051653D01*
Y2034992D01*
X3708347Y2026661D01*
X3666694D02*
Y2059984D01*
X3641702D01*
X3633371Y2051653D01*
Y2026661D01*
X3566726D02*
Y2059984D01*
X3550065Y2076645D01*
X3533403Y2059984D01*
Y2026661D01*
Y2051653D01*
X3566726D01*
X3516742Y2026661D02*
Y2059984D01*
X3508412D01*
X3500081Y2051653D01*
Y2026661D01*
Y2051653D01*
X3491750Y2059984D01*
X3483420Y2051653D01*
Y2026661D01*
X3466758Y2010000D02*
Y2059984D01*
X3441767D01*
X3433436Y2051653D01*
Y2034992D01*
X3441767Y2026661D01*
X3466758D01*
X3416775D02*
X3400113D01*
X3408444D01*
Y2076645D01*
X3416775D01*
X3375121Y2026661D02*
X3358460D01*
X3366791D01*
Y2059984D01*
X3375121D01*
X3325138Y2026661D02*
Y2068314D01*
Y2051653D01*
X3333468D01*
X3316807D01*
X3325138D01*
Y2068314D01*
X3316807Y2076645D01*
X3291815Y2026661D02*
X3275154D01*
X3283484D01*
Y2059984D01*
X3291815D01*
X3225170Y2026661D02*
X3241831D01*
X3250162Y2034992D01*
Y2051653D01*
X3241831Y2059984D01*
X3225170D01*
X3216839Y2051653D01*
Y2043323D01*
X3250162D01*
X3200178Y2059984D02*
Y2026661D01*
Y2043323D01*
X3191847Y2051653D01*
X3183517Y2059984D01*
X3175186D01*
D30*
X2935006Y2209992D02*
X2940005Y2214990D01*
X2950002D01*
X2955000Y2209992D01*
Y2189998D01*
X2950002Y2185000D01*
X2940005D01*
X2935006Y2189998D01*
Y2199995D01*
X2945003D01*
X2925010Y2185000D02*
Y2204994D01*
X2910015D01*
X2905016Y2199995D01*
Y2185000D01*
X2875026Y2214990D02*
Y2185000D01*
X2890021D01*
X2895019Y2189998D01*
Y2199995D01*
X2890021Y2204994D01*
X2875026D01*
X2865029Y2214990D02*
Y2185000D01*
X2845036D01*
X2830040D02*
X2820044D01*
X2815045Y2189998D01*
Y2199995D01*
X2820044Y2204994D01*
X2830040D01*
X2835039Y2199995D01*
Y2189998D01*
X2830040Y2185000D01*
X2800050Y2204994D02*
X2790053D01*
X2785055Y2199995D01*
Y2185000D01*
X2800050D01*
X2805048Y2189998D01*
X2800050Y2194997D01*
X2785055D01*
X2755065Y2214990D02*
Y2185000D01*
X2770060D01*
X2775058Y2189998D01*
Y2199995D01*
X2770060Y2204994D01*
X2755065D01*
X4725000Y2819995D02*
X4705007D01*
X4715003Y2829992D02*
Y2809998D01*
X4695010Y2834990D02*
Y2805000D01*
X4680015D01*
X4675016Y2809998D01*
Y2814997D01*
X4680015Y2819995D01*
X4695010D01*
X4680015D01*
X4675016Y2824994D01*
Y2829992D01*
X4680015Y2834990D01*
X4695010D01*
X4660021Y2824994D02*
X4650024D01*
X4645026Y2819995D01*
Y2805000D01*
X4660021D01*
X4665019Y2809998D01*
X4660021Y2814997D01*
X4645026D01*
X4630031Y2829992D02*
Y2824994D01*
X4635029D01*
X4625032D01*
X4630031D01*
Y2809998D01*
X4625032Y2805000D01*
X4605039Y2829992D02*
Y2824994D01*
X4610037D01*
X4600040D01*
X4605039D01*
Y2809998D01*
X4600040Y2805000D01*
X4705007Y2619992D02*
X4710005Y2624990D01*
X4720002D01*
X4725000Y2619992D01*
Y2599998D01*
X4720002Y2595000D01*
X4710005D01*
X4705007Y2599998D01*
Y2609995D01*
X4715003D01*
X4695010Y2595000D02*
Y2614994D01*
X4680015D01*
X4675016Y2609995D01*
Y2595000D01*
X4645026Y2624990D02*
Y2595000D01*
X4660021D01*
X4665019Y2599998D01*
Y2609995D01*
X4660021Y2614994D01*
X4645026D01*
X4635029Y2624990D02*
Y2595000D01*
X4620034D01*
X4615036Y2599998D01*
Y2604997D01*
X4620034Y2609995D01*
X4635029D01*
X4620034D01*
X4615036Y2614994D01*
Y2619992D01*
X4620034Y2624990D01*
X4635029D01*
X4600040Y2614994D02*
X4590044D01*
X4585045Y2609995D01*
Y2595000D01*
X4600040D01*
X4605039Y2599998D01*
X4600040Y2604997D01*
X4585045D01*
X4570050Y2619992D02*
Y2614994D01*
X4575048D01*
X4565052D01*
X4570050D01*
Y2599998D01*
X4565052Y2595000D01*
X4545058Y2619992D02*
Y2614994D01*
X4550057D01*
X4540060D01*
X4545058D01*
Y2599998D01*
X4540060Y2595000D01*
X4705007Y2409989D02*
X4710005Y2414987D01*
X4720002D01*
X4725000Y2409989D01*
Y2404990D01*
X4720002Y2399992D01*
X4710005D01*
X4705007Y2394994D01*
Y2389995D01*
X4710005Y2384997D01*
X4720002D01*
X4725000Y2389995D01*
X4695010Y2384997D02*
X4685013D01*
X4690011D01*
Y2404990D01*
X4695010D01*
X4660021Y2375000D02*
X4655023D01*
X4650024Y2379998D01*
Y2404990D01*
X4665019D01*
X4670018Y2399992D01*
Y2389995D01*
X4665019Y2384997D01*
X4650024D01*
X4625032Y2414987D02*
X4635029D01*
X4640028Y2409989D01*
Y2389995D01*
X4635029Y2384997D01*
X4625032D01*
X4620034Y2389995D01*
Y2409989D01*
X4625032Y2414987D01*
X4610037Y2404990D02*
Y2389995D01*
X4605039Y2384997D01*
X4590044D01*
Y2404990D01*
X4575048Y2409989D02*
Y2404990D01*
X4580047D01*
X4570050D01*
X4575048D01*
Y2389995D01*
X4570050Y2384997D01*
X4705007Y2229989D02*
X4710005Y2234987D01*
X4720002D01*
X4725000Y2229989D01*
Y2209995D01*
X4720002Y2204997D01*
X4710005D01*
X4705007Y2209995D01*
Y2219992D01*
X4715003D01*
X4695010Y2204997D02*
Y2224990D01*
X4680015D01*
X4675016Y2219992D01*
Y2204997D01*
X4645026Y2234987D02*
Y2204997D01*
X4660021D01*
X4665019Y2209995D01*
Y2219992D01*
X4660021Y2224990D01*
X4645026D01*
X4615036Y2229989D02*
X4620034Y2234987D01*
X4630031D01*
X4635029Y2229989D01*
Y2224990D01*
X4630031Y2219992D01*
X4620034D01*
X4615036Y2214994D01*
Y2209995D01*
X4620034Y2204997D01*
X4630031D01*
X4635029Y2209995D01*
X4605039Y2204997D02*
X4595042D01*
X4600040D01*
Y2224990D01*
X4605039D01*
X4570050Y2195000D02*
X4565052D01*
X4560053Y2199998D01*
Y2224990D01*
X4575048D01*
X4580047Y2219992D01*
Y2209995D01*
X4575048Y2204997D01*
X4560053D01*
X2925000Y2409992D02*
X2905006D01*
X2875016Y2419989D02*
X2880015Y2424987D01*
X2890011D01*
X2895010Y2419989D01*
Y2414990D01*
X2890011Y2409992D01*
X2880015D01*
X2875016Y2404994D01*
Y2399995D01*
X2880015Y2394997D01*
X2890011D01*
X2895010Y2399995D01*
X2865019Y2394997D02*
X2855023D01*
X2860021D01*
Y2414990D01*
X2865019D01*
X2830031Y2385000D02*
X2825032D01*
X2820034Y2389998D01*
Y2414990D01*
X2835029D01*
X2840028Y2409992D01*
Y2399995D01*
X2835029Y2394997D01*
X2820034D01*
X2810037Y2424987D02*
X2800040D01*
X2805039D01*
Y2394997D01*
X2810037D01*
X2800040D01*
X2785045D02*
Y2414990D01*
X2770050D01*
X2765052Y2409992D01*
Y2394997D01*
X2924948Y2609992D02*
X2904955D01*
X2914951Y2619989D02*
Y2599995D01*
X2874964Y2619989D02*
X2879963Y2624987D01*
X2889959D01*
X2894958Y2619989D01*
Y2614990D01*
X2889959Y2609992D01*
X2879963D01*
X2874964Y2604994D01*
Y2599995D01*
X2879963Y2594997D01*
X2889959D01*
X2894958Y2599995D01*
X2864968Y2594997D02*
X2854971D01*
X2859969D01*
Y2614990D01*
X2864968D01*
X2829979Y2585000D02*
X2824981D01*
X2819982Y2589998D01*
Y2614990D01*
X2834977D01*
X2839976Y2609992D01*
Y2599995D01*
X2834977Y2594997D01*
X2819982D01*
X2809985Y2624987D02*
X2799989D01*
X2804987D01*
Y2594997D01*
X2809985D01*
X2799989D01*
X2784994D02*
Y2614990D01*
X2769998D01*
X2765000Y2609992D01*
Y2594997D01*
X2934945Y2809995D02*
X2914952D01*
X2924948Y2819992D02*
Y2799998D01*
X2904955Y2824990D02*
Y2804997D01*
X2894958Y2795000D01*
X2884961Y2804997D01*
Y2824990D01*
X2874964D02*
Y2795000D01*
X2854971D01*
X2839976D02*
X2829979D01*
X2824981Y2799998D01*
Y2809995D01*
X2829979Y2814994D01*
X2839976D01*
X2844974Y2809995D01*
Y2799998D01*
X2839976Y2795000D01*
X2809985Y2814994D02*
X2799989D01*
X2794990Y2809995D01*
Y2795000D01*
X2809985D01*
X2814984Y2799998D01*
X2809985Y2804997D01*
X2794990D01*
X2765000Y2824990D02*
Y2795000D01*
X2779995D01*
X2784994Y2799998D01*
Y2809995D01*
X2779995Y2814994D01*
X2765000D01*
%TF.MD5,7c264c0b2288ec1ec152369f651198a6*%
M02*
